<mxfile host="app.diagrams.net" modified="2022-06-05T21:18:44.856Z" agent="5.0 (Windows NT 10.0; Win64; x64) AppleWebKit/537.36 (KHTML, like Gecko) Chrome/102.0.5005.63 Safari/537.36 Edg/102.0.1245.30" etag="KyqKFb878K9s_pazaa48" version="17.5.0" type="github">
  <diagram id="ImiZiOODFj8ORh_n_VHi" name="Page-1">
    <mxGraphModel dx="1695" dy="1651" grid="1" gridSize="10" guides="1" tooltips="1" connect="1" arrows="1" fold="1" page="1" pageScale="1" pageWidth="827" pageHeight="1169" math="0" shadow="0">
      <root>
        <mxCell id="0" />
        <mxCell id="1" parent="0" />
        <mxCell id="dk_xkWQx7_EmQdFWq2oa-77" value="" style="rounded=0;whiteSpace=wrap;html=1;" vertex="1" parent="1">
          <mxGeometry x="504" y="255" width="326" height="240" as="geometry" />
        </mxCell>
        <mxCell id="dk_xkWQx7_EmQdFWq2oa-57" value="" style="rounded=0;whiteSpace=wrap;html=1;" vertex="1" parent="1">
          <mxGeometry x="-10" y="230" width="360" height="445" as="geometry" />
        </mxCell>
        <mxCell id="dk_xkWQx7_EmQdFWq2oa-5" value="" style="edgeStyle=orthogonalEdgeStyle;rounded=0;orthogonalLoop=1;jettySize=auto;html=1;" edge="1" parent="1" source="dk_xkWQx7_EmQdFWq2oa-3" target="dk_xkWQx7_EmQdFWq2oa-4">
          <mxGeometry relative="1" as="geometry" />
        </mxCell>
        <mxCell id="dk_xkWQx7_EmQdFWq2oa-3" value="" style="verticalLabelPosition=bottom;html=1;verticalAlign=top;align=center;strokeColor=none;fillColor=#00BEF2;shape=mxgraph.azure.laptop;pointerEvents=1;" vertex="1" parent="1">
          <mxGeometry x="50" y="60" width="50" height="30" as="geometry" />
        </mxCell>
        <mxCell id="dk_xkWQx7_EmQdFWq2oa-7" value="" style="edgeStyle=orthogonalEdgeStyle;rounded=0;orthogonalLoop=1;jettySize=auto;html=1;" edge="1" parent="1" source="dk_xkWQx7_EmQdFWq2oa-4" target="dk_xkWQx7_EmQdFWq2oa-6">
          <mxGeometry relative="1" as="geometry" />
        </mxCell>
        <mxCell id="dk_xkWQx7_EmQdFWq2oa-4" value="" style="verticalLabelPosition=bottom;html=1;verticalAlign=top;align=center;strokeColor=none;fillColor=#00BEF2;shape=mxgraph.azure.github_code;pointerEvents=1;" vertex="1" parent="1">
          <mxGeometry x="160" y="50" width="50" height="50" as="geometry" />
        </mxCell>
        <mxCell id="dk_xkWQx7_EmQdFWq2oa-9" value="" style="edgeStyle=orthogonalEdgeStyle;rounded=0;orthogonalLoop=1;jettySize=auto;html=1;" edge="1" parent="1" source="dk_xkWQx7_EmQdFWq2oa-6" target="dk_xkWQx7_EmQdFWq2oa-8">
          <mxGeometry relative="1" as="geometry" />
        </mxCell>
        <mxCell id="dk_xkWQx7_EmQdFWq2oa-6" value="" style="shape=image;verticalLabelPosition=bottom;labelBackgroundColor=default;verticalAlign=top;aspect=fixed;imageAspect=0;image=https://www.azuredevopslabs.com/images/terraform.png;" vertex="1" parent="1">
          <mxGeometry x="280" y="50" width="51" height="51" as="geometry" />
        </mxCell>
        <mxCell id="dk_xkWQx7_EmQdFWq2oa-8" value="" style="aspect=fixed;html=1;points=[];align=center;image;fontSize=12;image=img/lib/azure2/compute/Function_Apps.svg;" vertex="1" parent="1">
          <mxGeometry x="390" y="45" width="68" height="60" as="geometry" />
        </mxCell>
        <mxCell id="dk_xkWQx7_EmQdFWq2oa-10" value="" style="edgeStyle=orthogonalEdgeStyle;rounded=0;orthogonalLoop=1;jettySize=auto;html=1;" edge="1" parent="1" source="dk_xkWQx7_EmQdFWq2oa-11" target="dk_xkWQx7_EmQdFWq2oa-13">
          <mxGeometry relative="1" as="geometry" />
        </mxCell>
        <mxCell id="dk_xkWQx7_EmQdFWq2oa-11" value="" style="verticalLabelPosition=bottom;html=1;verticalAlign=top;align=center;strokeColor=none;fillColor=#00BEF2;shape=mxgraph.azure.laptop;pointerEvents=1;" vertex="1" parent="1">
          <mxGeometry x="50" y="165" width="50" height="30" as="geometry" />
        </mxCell>
        <mxCell id="dk_xkWQx7_EmQdFWq2oa-12" value="" style="edgeStyle=orthogonalEdgeStyle;rounded=0;orthogonalLoop=1;jettySize=auto;html=1;" edge="1" parent="1" source="dk_xkWQx7_EmQdFWq2oa-13" target="dk_xkWQx7_EmQdFWq2oa-15">
          <mxGeometry relative="1" as="geometry" />
        </mxCell>
        <mxCell id="dk_xkWQx7_EmQdFWq2oa-13" value="" style="verticalLabelPosition=bottom;html=1;verticalAlign=top;align=center;strokeColor=none;fillColor=#00BEF2;shape=mxgraph.azure.github_code;pointerEvents=1;" vertex="1" parent="1">
          <mxGeometry x="160" y="155" width="50" height="50" as="geometry" />
        </mxCell>
        <mxCell id="dk_xkWQx7_EmQdFWq2oa-18" value="" style="edgeStyle=orthogonalEdgeStyle;rounded=0;orthogonalLoop=1;jettySize=auto;html=1;" edge="1" parent="1" source="dk_xkWQx7_EmQdFWq2oa-15" target="dk_xkWQx7_EmQdFWq2oa-17">
          <mxGeometry relative="1" as="geometry" />
        </mxCell>
        <mxCell id="dk_xkWQx7_EmQdFWq2oa-15" value="" style="shape=image;verticalLabelPosition=bottom;labelBackgroundColor=default;verticalAlign=top;aspect=fixed;imageAspect=0;image=https://www.azuredevopslabs.com/images/terraform.png;" vertex="1" parent="1">
          <mxGeometry x="280" y="155" width="51" height="51" as="geometry" />
        </mxCell>
        <mxCell id="dk_xkWQx7_EmQdFWq2oa-17" value="" style="verticalLabelPosition=bottom;html=1;verticalAlign=top;align=center;strokeColor=none;fillColor=#00BEF2;shape=mxgraph.azure.sql_database_sql_azure;" vertex="1" parent="1">
          <mxGeometry x="400.25" y="156" width="47.5" height="50" as="geometry" />
        </mxCell>
        <mxCell id="dk_xkWQx7_EmQdFWq2oa-19" value="&lt;h1&gt;Functions&lt;/h1&gt;&lt;p&gt;-Import file {POST}&lt;br&gt;-Send file {POST}&lt;br&gt;-Status {GET}&lt;br&gt;-Sync {PUT}&lt;/p&gt;" style="text;html=1;strokeColor=none;fillColor=none;spacing=5;spacingTop=-20;whiteSpace=wrap;overflow=hidden;rounded=0;" vertex="1" parent="1">
          <mxGeometry x="470" width="190" height="120" as="geometry" />
        </mxCell>
        <mxCell id="dk_xkWQx7_EmQdFWq2oa-51" value="post" style="edgeStyle=orthogonalEdgeStyle;rounded=1;orthogonalLoop=1;jettySize=auto;html=1;exitX=0.978;exitY=0.52;exitDx=0;exitDy=0;exitPerimeter=0;" edge="1" parent="1" source="dk_xkWQx7_EmQdFWq2oa-71" target="dk_xkWQx7_EmQdFWq2oa-29">
          <mxGeometry relative="1" as="geometry">
            <mxPoint x="98.75" y="290" as="sourcePoint" />
            <Array as="points">
              <mxPoint x="70" y="401" />
              <mxPoint x="70" y="290" />
            </Array>
          </mxGeometry>
        </mxCell>
        <mxCell id="dk_xkWQx7_EmQdFWq2oa-22" value="" style="endArrow=none;dashed=1;html=1;rounded=0;" edge="1" parent="1">
          <mxGeometry width="50" height="50" relative="1" as="geometry">
            <mxPoint x="40" y="220" as="sourcePoint" />
            <mxPoint x="600" y="220" as="targetPoint" />
          </mxGeometry>
        </mxCell>
        <mxCell id="dk_xkWQx7_EmQdFWq2oa-50" value="post" style="edgeStyle=orthogonalEdgeStyle;rounded=1;orthogonalLoop=1;jettySize=auto;html=1;exitX=0.982;exitY=0.52;exitDx=0;exitDy=0;exitPerimeter=0;" edge="1" parent="1" source="dk_xkWQx7_EmQdFWq2oa-71" target="dk_xkWQx7_EmQdFWq2oa-30">
          <mxGeometry relative="1" as="geometry">
            <mxPoint x="100" y="400" as="sourcePoint" />
          </mxGeometry>
        </mxCell>
        <mxCell id="dk_xkWQx7_EmQdFWq2oa-45" value="get" style="edgeStyle=orthogonalEdgeStyle;rounded=1;orthogonalLoop=1;jettySize=auto;html=1;exitX=1.015;exitY=0.54;exitDx=0;exitDy=0;exitPerimeter=0;" edge="1" parent="1" source="dk_xkWQx7_EmQdFWq2oa-71" target="dk_xkWQx7_EmQdFWq2oa-32">
          <mxGeometry relative="1" as="geometry">
            <mxPoint x="99.02494000000002" y="511" as="sourcePoint" />
            <Array as="points">
              <mxPoint x="70" y="402" />
              <mxPoint x="70" y="510" />
            </Array>
          </mxGeometry>
        </mxCell>
        <mxCell id="dk_xkWQx7_EmQdFWq2oa-52" value="" style="edgeStyle=orthogonalEdgeStyle;rounded=1;orthogonalLoop=1;jettySize=auto;html=1;" edge="1" parent="1" source="dk_xkWQx7_EmQdFWq2oa-29" target="dk_xkWQx7_EmQdFWq2oa-36">
          <mxGeometry relative="1" as="geometry" />
        </mxCell>
        <mxCell id="dk_xkWQx7_EmQdFWq2oa-29" value="IMPORT" style="aspect=fixed;html=1;points=[];align=center;image;fontSize=12;image=img/lib/azure2/compute/Function_Apps.svg;" vertex="1" parent="1">
          <mxGeometry x="151" y="260" width="68" height="60" as="geometry" />
        </mxCell>
        <mxCell id="dk_xkWQx7_EmQdFWq2oa-48" style="edgeStyle=orthogonalEdgeStyle;rounded=1;orthogonalLoop=1;jettySize=auto;html=1;" edge="1" parent="1" target="dk_xkWQx7_EmQdFWq2oa-47">
          <mxGeometry relative="1" as="geometry">
            <mxPoint x="220" y="400" as="sourcePoint" />
            <Array as="points">
              <mxPoint x="220" y="401" />
              <mxPoint x="240" y="401" />
              <mxPoint x="240" y="430" />
              <mxPoint x="389" y="430" />
            </Array>
          </mxGeometry>
        </mxCell>
        <mxCell id="dk_xkWQx7_EmQdFWq2oa-49" style="edgeStyle=orthogonalEdgeStyle;orthogonalLoop=1;jettySize=auto;html=1;entryX=0;entryY=0.5;entryDx=0;entryDy=0;entryPerimeter=0;rounded=1;" edge="1" parent="1" source="dk_xkWQx7_EmQdFWq2oa-30" target="dk_xkWQx7_EmQdFWq2oa-37">
          <mxGeometry relative="1" as="geometry">
            <Array as="points">
              <mxPoint x="240" y="400" />
              <mxPoint x="240" y="375" />
            </Array>
          </mxGeometry>
        </mxCell>
        <mxCell id="dk_xkWQx7_EmQdFWq2oa-30" value="SEND" style="aspect=fixed;html=1;points=[];align=center;image;fontSize=12;image=img/lib/azure2/compute/Function_Apps.svg;" vertex="1" parent="1">
          <mxGeometry x="151" y="370" width="68" height="60" as="geometry" />
        </mxCell>
        <mxCell id="dk_xkWQx7_EmQdFWq2oa-46" value="" style="edgeStyle=orthogonalEdgeStyle;rounded=0;orthogonalLoop=1;jettySize=auto;html=1;" edge="1" parent="1" source="dk_xkWQx7_EmQdFWq2oa-32" target="dk_xkWQx7_EmQdFWq2oa-38">
          <mxGeometry relative="1" as="geometry" />
        </mxCell>
        <mxCell id="dk_xkWQx7_EmQdFWq2oa-32" value="STATUS" style="aspect=fixed;html=1;points=[];align=center;image;fontSize=12;image=img/lib/azure2/compute/Function_Apps.svg;" vertex="1" parent="1">
          <mxGeometry x="151" y="480" width="68" height="60" as="geometry" />
        </mxCell>
        <mxCell id="dk_xkWQx7_EmQdFWq2oa-44" value="" style="edgeStyle=orthogonalEdgeStyle;rounded=1;orthogonalLoop=1;jettySize=auto;html=1;" edge="1" parent="1" source="dk_xkWQx7_EmQdFWq2oa-34" target="dk_xkWQx7_EmQdFWq2oa-47">
          <mxGeometry relative="1" as="geometry">
            <mxPoint x="283.5" y="620" as="targetPoint" />
          </mxGeometry>
        </mxCell>
        <mxCell id="dk_xkWQx7_EmQdFWq2oa-34" value="SYNC" style="aspect=fixed;html=1;points=[];align=center;image;fontSize=12;image=img/lib/azure2/compute/Function_Apps.svg;" vertex="1" parent="1">
          <mxGeometry x="151" y="590" width="68" height="60" as="geometry" />
        </mxCell>
        <mxCell id="dk_xkWQx7_EmQdFWq2oa-36" value="" style="verticalLabelPosition=bottom;html=1;verticalAlign=top;align=center;strokeColor=none;fillColor=#00BEF2;shape=mxgraph.azure.sql_database_sql_azure;" vertex="1" parent="1">
          <mxGeometry x="270" y="265" width="47.5" height="50" as="geometry" />
        </mxCell>
        <mxCell id="dk_xkWQx7_EmQdFWq2oa-37" value="" style="verticalLabelPosition=bottom;html=1;verticalAlign=top;align=center;strokeColor=none;fillColor=#00BEF2;shape=mxgraph.azure.sql_database_sql_azure;" vertex="1" parent="1">
          <mxGeometry x="270" y="350" width="47.5" height="50" as="geometry" />
        </mxCell>
        <mxCell id="dk_xkWQx7_EmQdFWq2oa-38" value="" style="verticalLabelPosition=bottom;html=1;verticalAlign=top;align=center;strokeColor=none;fillColor=#00BEF2;shape=mxgraph.azure.sql_database_sql_azure;" vertex="1" parent="1">
          <mxGeometry x="280" y="485" width="47.5" height="50" as="geometry" />
        </mxCell>
        <mxCell id="dk_xkWQx7_EmQdFWq2oa-41" value="event" style="edgeStyle=orthogonalEdgeStyle;rounded=0;orthogonalLoop=1;jettySize=auto;html=1;" edge="1" parent="1" source="dk_xkWQx7_EmQdFWq2oa-39" target="dk_xkWQx7_EmQdFWq2oa-34">
          <mxGeometry relative="1" as="geometry" />
        </mxCell>
        <mxCell id="dk_xkWQx7_EmQdFWq2oa-39" value="" style="verticalLabelPosition=bottom;html=1;verticalAlign=top;align=center;strokeColor=none;fillColor=#00BEF2;shape=mxgraph.azure.sql_database_sql_azure;" vertex="1" parent="1">
          <mxGeometry x="51.25" y="595" width="47.5" height="50" as="geometry" />
        </mxCell>
        <mxCell id="dk_xkWQx7_EmQdFWq2oa-47" value="Partner API" style="sketch=0;aspect=fixed;html=1;points=[];align=center;image;fontSize=12;image=img/lib/mscae/API_Management.svg;" vertex="1" parent="1">
          <mxGeometry x="364" y="489" width="50" height="42" as="geometry" />
        </mxCell>
        <mxCell id="dk_xkWQx7_EmQdFWq2oa-53" value="" style="aspect=fixed;html=1;points=[];align=center;image;fontSize=12;image=img/lib/azure2/web/Notification_Hub_Namespaces.svg;" vertex="1" parent="1">
          <mxGeometry x="115.98" y="595" width="19.14" height="16" as="geometry" />
        </mxCell>
        <mxCell id="dk_xkWQx7_EmQdFWq2oa-56" value="" style="aspect=fixed;html=1;points=[];align=center;image;fontSize=12;image=img/lib/azure2/general/File.svg;" vertex="1" parent="1">
          <mxGeometry x="117.84" y="265" width="15.42" height="19" as="geometry" />
        </mxCell>
        <mxCell id="dk_xkWQx7_EmQdFWq2oa-66" value="" style="edgeStyle=orthogonalEdgeStyle;rounded=1;orthogonalLoop=1;jettySize=auto;html=1;" edge="1" parent="1" source="dk_xkWQx7_EmQdFWq2oa-58" target="dk_xkWQx7_EmQdFWq2oa-64">
          <mxGeometry relative="1" as="geometry" />
        </mxCell>
        <mxCell id="dk_xkWQx7_EmQdFWq2oa-78" value="" style="edgeStyle=orthogonalEdgeStyle;rounded=1;orthogonalLoop=1;jettySize=auto;html=1;" edge="1" parent="1" source="dk_xkWQx7_EmQdFWq2oa-58" target="dk_xkWQx7_EmQdFWq2oa-75">
          <mxGeometry relative="1" as="geometry" />
        </mxCell>
        <mxCell id="dk_xkWQx7_EmQdFWq2oa-58" value="Front door" style="aspect=fixed;html=1;points=[];align=center;image;fontSize=12;image=img/lib/azure2/networking/Front_Doors.svg;" vertex="1" parent="1">
          <mxGeometry x="530" y="290" width="68" height="60" as="geometry" />
        </mxCell>
        <mxCell id="dk_xkWQx7_EmQdFWq2oa-61" value="" style="edgeStyle=orthogonalEdgeStyle;rounded=1;orthogonalLoop=1;jettySize=auto;html=1;" edge="1" parent="1" source="dk_xkWQx7_EmQdFWq2oa-59" target="dk_xkWQx7_EmQdFWq2oa-58">
          <mxGeometry relative="1" as="geometry" />
        </mxCell>
        <mxCell id="dk_xkWQx7_EmQdFWq2oa-59" value="" style="verticalLabelPosition=bottom;html=1;verticalAlign=top;align=center;strokeColor=none;fillColor=#00BEF2;shape=mxgraph.azure.user;" vertex="1" parent="1">
          <mxGeometry x="430" y="295" width="47.5" height="50" as="geometry" />
        </mxCell>
        <mxCell id="dk_xkWQx7_EmQdFWq2oa-68" value="" style="edgeStyle=orthogonalEdgeStyle;rounded=1;orthogonalLoop=1;jettySize=auto;html=1;" edge="1" parent="1" source="dk_xkWQx7_EmQdFWq2oa-62" target="dk_xkWQx7_EmQdFWq2oa-65">
          <mxGeometry relative="1" as="geometry" />
        </mxCell>
        <mxCell id="dk_xkWQx7_EmQdFWq2oa-62" value="API GTW" style="aspect=fixed;html=1;points=[];align=center;image;fontSize=12;image=img/lib/azure2/app_services/API_Management_Services.svg;" vertex="1" parent="1">
          <mxGeometry x="750" y="290" width="65" height="60" as="geometry" />
        </mxCell>
        <mxCell id="dk_xkWQx7_EmQdFWq2oa-67" value="" style="edgeStyle=orthogonalEdgeStyle;rounded=1;orthogonalLoop=1;jettySize=auto;html=1;" edge="1" parent="1" source="dk_xkWQx7_EmQdFWq2oa-64" target="dk_xkWQx7_EmQdFWq2oa-62">
          <mxGeometry relative="1" as="geometry" />
        </mxCell>
        <mxCell id="dk_xkWQx7_EmQdFWq2oa-64" value="App Services" style="aspect=fixed;html=1;points=[];align=center;image;fontSize=12;image=img/lib/azure2/app_services/App_Services.svg;" vertex="1" parent="1">
          <mxGeometry x="640" y="288" width="64" height="64" as="geometry" />
        </mxCell>
        <mxCell id="dk_xkWQx7_EmQdFWq2oa-65" value="ENV" style="aspect=fixed;html=1;points=[];align=center;image;fontSize=12;image=img/lib/azure2/app_services/App_Service_Environments.svg;" vertex="1" parent="1">
          <mxGeometry x="751" y="400" width="64" height="64" as="geometry" />
        </mxCell>
        <mxCell id="dk_xkWQx7_EmQdFWq2oa-71" value="" style="aspect=fixed;html=1;points=[];align=center;image;fontSize=12;image=img/lib/azure2/app_services/API_Management_Services.svg;" vertex="1" parent="1">
          <mxGeometry x="-7.105427357601002e-15" y="375" width="54.17" height="50" as="geometry" />
        </mxCell>
        <mxCell id="dk_xkWQx7_EmQdFWq2oa-75" value="WAF" style="aspect=fixed;html=1;points=[];align=center;image;fontSize=12;image=img/lib/azure2/networking/Web_Application_Firewall_Policies_WAF.svg;" vertex="1" parent="1">
          <mxGeometry x="530" y="396" width="68" height="68" as="geometry" />
        </mxCell>
      </root>
    </mxGraphModel>
  </diagram>
</mxfile>
